<svg height="512pt" viewBox="0 -28 512 512" width="512pt" xmlns="http://www.w3.org/2000/svg"><path d="m482.5 201.9375v-95h-141.753906l48.554687-93.058594-26.601562-13.878906-55.792969 106.9375h-101.8125l-55.792969-106.9375-26.601562 13.878906 48.554687 93.0625h-141.753906v95h-29.5v160h29.5v95h453v-95h29.5v-160h-29.5zm-30 225h-393v-290h393zm0 0"/><path d="m161 266.9375c24.8125 0 45-20.183594 45-45 0-24.8125-20.1875-45-45-45s-45 20.1875-45 45c0 24.816406 20.1875 45 45 45zm0-60c8.269531 0 15 6.730469 15 15 0 8.273438-6.730469 15-15 15s-15-6.726562-15-15c0-8.269531 6.730469-15 15-15zm0 0"/><path d="m351 266.9375c24.8125 0 45-20.183594 45-45 0-24.8125-20.1875-45-45-45s-45 20.1875-45 45c0 24.816406 20.1875 45 45 45zm0-60c8.269531 0 15 6.730469 15 15 0 8.273438-6.730469 15-15 15s-15-6.726562-15-15c0-8.269531 6.730469-15 15-15zm0 0"/><path d="m146 386.9375h220v-90h-220zm30-60h160v30h-160zm0 0"/></svg>